<?xml version="1.0" encoding="UTF-8" standalone="no"?>
<svg xmlns="http://www.w3.org/2000/svg" xmlns:xlink="http://www.w3.org/1999/xlink" version="1.1" viewBox="0 0 153 23">
    <g id="Page-Elements" fill="none" fill-rule="evenodd" stroke="none" stroke-width="1">
        <g id="masthead" transform="translate(-60.000000, -28.000000)">
            <g id="logo" transform="translate(60.000000, 28.000000)">
                <g id="ONE" transform="translate(84.857143, 0.214303)">
                    <path id="Shape" fill="#F5A300" d="M66.6473479,16.3309766 L62.9688545,16.3309766 C60.4199772,16.3309766 61.4047707,18.8089858 56.5097678,18.8089858 C50.5430778,18.8089858 51.00651,11.9720688 51.00651,11.9720688 L67.3135317,11.9720688 C67.3135317,5.37399596 64.6487964,0.0895665993 56.5387323,0.0895665993 C50.0217165,0.0895665993 45.8218619,3.67223057 45.8218619,11.0465472 C45.8218619,17.5550535 49.0948521,22.2423722 56.5387323,22.2423722 C64.4170802,22.2423722 66.3577027,17.0475094 66.6473479,16.3309766 L66.6473479,16.3309766 Z M51.0354745,8.59839353 C51.0354745,8.59839353 50.9196165,3.6125195 56.5387323,3.6125195 C62.1578481,3.6125195 62.04199,8.59839353 62.04199,8.59839353 L51.0354745,8.59839353 L51.0354745,8.59839353 Z"/>
                    <path id="Shape" fill="#24BAC5" d="M10.8906575,0.0895665993 C4.25778363,0.0895665993 0.144822572,3.58266397 0.144822572,11.1659694 C0.144822572,18.7492748 4.25778363,22.2423722 10.8906575,22.2423722 C17.5235313,22.2423722 21.6364923,18.7492748 21.6364923,11.1659694 C21.6364923,3.6125195 17.5235313,0.0895665993 10.8906575,0.0895665993 L10.8906575,0.0895665993 Z M10.8906575,18.8686969 C6.28529965,18.8686969 5.09775455,14.7187778 5.09775455,11.1958249 C5.09775455,7.67287201 6.31426416,3.52295291 10.8906575,3.52295291 C15.4960153,3.52295291 16.7125249,7.67287201 16.7125249,11.1958249 C16.7125249,14.6889223 15.4960153,18.8686969 10.8906575,18.8686969 L10.8906575,18.8686969 Z"/>
                    <path id="Shape" fill="#8CC63E" d="M41.6509718,3.01540884 C39.913101,1.16436579 37.2194011,0.119422132 33.7436594,0.119422132 L33.7436594,0.119422132 C30.2679176,0.119422132 27.5452533,1.16436579 25.8363469,3.01540884 C24.4170857,4.53804103 23.7798664,6.18009535 23.7798664,9.43434846 L23.7798664,22.2423722 L28.9065855,22.2423722 L28.9065855,8.77752673 C28.9065855,5.49341809 31.4264982,4.00064143 33.7436594,4.00064143 C36.0608205,4.00064143 38.5807333,5.46356256 38.5807333,8.77752673 L38.5807333,22.2722277 L43.7074524,22.2722277 L43.7074524,9.43434846 C43.6784879,6.18009535 43.0702331,4.53804103 41.6509718,3.01540884 L41.6509718,3.01540884 Z"/>
                </g>
                <path id="EMOJI" fill="#DADADA" d="M13.8994286,21.4285714 L13.8994286,19.824 L2.60571429,19.824 L2.60571429,11.6777143 L13.6834286,11.6777143 L13.6834286,10.0731429 L2.60571429,10.0731429 L2.60571429,2.45142857 L13.8994286,2.45142857 L13.8994286,0.846857143 L0.846857143,0.846857143 L0.846857143,21.4285714 L13.8994286,21.4285714 Z M37.5051429,21.4285714 L37.5051429,0.846857143 L34.8514286,0.846857143 L27.8777143,17.8182857 L20.8731429,0.846857143 L18.2502857,0.846857143 L18.2502857,21.4285714 L20.0091429,21.4285714 L20.0091429,3.25371429 L27.5382857,21.4285714 L28.2171429,21.4285714 L35.7154286,3.25371429 L35.7154286,21.4285714 L37.5051429,21.4285714 Z M51.8537143,21.7988571 C57.8708571,21.7988571 61.8514286,17.1702857 61.8514286,11.1531429 C61.8514286,5.136 57.8708571,0.507428571 51.8537143,0.507428571 C45.8057143,0.507428571 41.856,5.136 41.856,11.1531429 C41.856,17.1702857 45.8057143,21.7988571 51.8537143,21.7988571 L51.8537143,21.7988571 Z M51.8537143,20.1942857 C46.8548571,20.1942857 43.7074286,16.3371429 43.7074286,11.1531429 C43.7074286,5.90742857 46.8548571,2.112 51.8537143,2.112 C56.7908571,2.112 60,5.90742857 60,11.1531429 C60,16.3371429 56.7908571,20.1942857 51.8537143,20.1942857 L51.8537143,20.1942857 Z M68.7325714,21.7988571 C72.1577143,21.7988571 74.9657143,19.7622857 74.9657143,15.4731429 L74.9657143,0.846857143 L73.176,0.846857143 L73.176,15.4731429 C73.176,18.2502857 71.448,20.1942857 68.64,20.1942857 C66.696,20.1942857 65.4617143,19.1451429 64.536,17.9417143 L63.456,19.2685714 C64.8137143,21.0274286 66.5108571,21.7988571 68.7325714,21.7988571 L68.7325714,21.7988571 Z M81.8468571,21.4285714 L81.8468571,0.846857143 L80.088,0.846857143 L80.088,21.4285714 L81.8468571,21.4285714 Z"/>
            </g>
        </g>
    </g>
</svg>
